<svg width="115" height="25" viewBox="0 0 115 25" fill="none" xmlns="http://www.w3.org/2000/svg">
<path d="M96.4115 4.02481L98.2627 2.18401L108.548 12.48L98.2523 22.776L96.4115 20.9352L104.867 12.48L96.4115 4.02481Z" fill="#3493A8"/>
<path d="M7.61719 19.3516C10.8691 19.3516 13.252 17.4082 13.584 14.5273H11.1035C10.7617 16.1094 9.4043 17.1055 7.61719 17.1055C5.21484 17.1055 3.7207 15.1328 3.7207 11.9492C3.7207 8.77539 5.21484 6.80273 7.60742 6.80273C9.38477 6.80273 10.7422 7.89648 11.0938 9.58594H13.5742C13.2812 6.64648 10.8105 4.55664 7.60742 4.55664C3.61328 4.55664 1.14258 7.37891 1.14258 11.959C1.14258 16.5195 3.62305 19.3516 7.61719 19.3516ZM20.3179 19.2148C23.5112 19.2148 25.4546 17.125 25.4546 13.6582C25.4546 10.2012 23.5015 8.10156 20.3179 8.10156C17.144 8.10156 15.1811 10.2109 15.1811 13.6582C15.1811 17.125 17.1147 19.2148 20.3179 19.2148ZM20.3179 17.1836C18.6284 17.1836 17.6616 15.8945 17.6616 13.6582C17.6616 11.4316 18.6284 10.1328 20.3179 10.1328C21.9976 10.1328 22.9644 11.4316 22.9644 13.6582C22.9644 15.8945 22.0073 17.1836 20.3179 17.1836ZM27.4717 19H29.8935V12.7793C29.8935 11.207 30.8018 10.2109 32.2471 10.2109C33.7217 10.2109 34.4053 11.0312 34.4053 12.6621V19H36.8271V12.0859C36.8271 9.53711 35.5283 8.10156 33.1455 8.10156C31.5537 8.10156 30.4795 8.83398 29.9717 10.0254H29.8057V8.31641H27.4717V19ZM40.0454 5.69922V8.38477H38.3559V10.3184H40.0454V16.1484C40.0454 18.2188 41.022 19.0488 43.4731 19.0488C43.9419 19.0488 44.3911 19 44.7427 18.9316V17.0371C44.4497 17.0664 44.2641 17.0859 43.9224 17.0859C42.9067 17.0859 42.4575 16.6172 42.4575 15.5625V10.3184H44.7427V8.38477H42.4575V5.69922H40.0454ZM46.7695 19H49.1816V8.31641H46.7695V19ZM47.9707 6.57812C48.8594 6.57812 49.4648 6.01172 49.4648 5.24023C49.4648 4.46875 48.8594 3.90234 47.9707 3.90234C47.0918 3.90234 46.4765 4.46875 46.4765 5.24023C46.4765 6.01172 47.0918 6.57812 47.9707 6.57812ZM51.7651 19H54.187V12.7793C54.187 11.207 55.0952 10.2109 56.5405 10.2109C58.0151 10.2109 58.6987 11.0312 58.6987 12.6621V19H61.1206V12.0859C61.1206 9.53711 59.8218 8.10156 57.4389 8.10156C55.8471 8.10156 54.7729 8.83398 54.2651 10.0254H54.0991V8.31641H51.7651V19ZM72.8642 8.31641H70.4424V14.5371C70.4424 16.1191 69.583 17.0859 68.0107 17.0859C66.5654 17.0859 65.8916 16.2852 65.8916 14.6543V8.31641H63.4697V15.2598C63.4697 17.7598 64.8369 19.2148 67.1709 19.2148C68.8017 19.2148 69.8467 18.5215 70.3642 17.3008H70.5303V19H72.8642V8.31641ZM79.8911 10.0254C81.3462 10.0254 82.3032 11.041 82.352 12.623H77.3227C77.4302 11.0605 78.4458 10.0254 79.8911 10.0254ZM82.3716 16.0605C82.02 16.8516 81.1899 17.291 79.9887 17.291C78.3969 17.291 77.3716 16.1777 77.313 14.4004V14.2734H84.7739V13.4922C84.7739 10.123 82.9477 8.10156 79.9009 8.10156C76.8052 8.10156 74.8813 10.2598 74.8813 13.6973C74.8813 17.1348 76.7759 19.2148 79.9204 19.2148C82.4399 19.2148 84.2075 18.0039 84.6665 16.0605H82.3716Z" fill="#3493A8"/>
</svg>
