<?xml version="1.0" encoding="utf-8"?>
<!-- Generator: Adobe Illustrator 26.0.2, SVG Export Plug-In . SVG Version: 6.00 Build 0)  -->
<svg version="1.1" id="Layer_1" xmlns="http://www.w3.org/2000/svg" xmlns:xlink="http://www.w3.org/1999/xlink" x="0px" y="0px"
	 viewBox="0 0 200 200" style="enable-background:new 0 0 200 200;" xml:space="preserve">
<style type="text/css">
	.st0{fill:#3493A8;}
	.st1{fill:#7BBCBF;}
	.st2{fill:none;stroke:#3493A8;stroke-width:3;stroke-miterlimit:10;}
</style>
<g>
	<g>
		<path class="st0" d="M91.3,60.4h3.1l-9.1,30.9H83l-6.8-22.9c-0.1-0.3-0.2-0.6-0.3-0.9c-0.1,0.3-0.1,0.6-0.2,0.9
			c-2.3,7.5-4.9,15.5-7.2,23h-2.3L57,60.4h3.2l6.9,24.4c0.1,0.4,0.2,0.8,0.3,1.1c2.6-8.4,5.3-17.1,7.9-25.5H77l6.9,24.4
			c0.1,0.4,0.2,0.8,0.3,1.1C86.5,77.5,88.9,68.9,91.3,60.4z"/>
		<path class="st0" d="M96.3,88.6c-1.7-1.9-2.8-4.7-2.8-8.2c0-5.6,2.3-9.3,6.3-10.9c1.3-0.5,2.8-0.8,4.4-0.8c5.2,0,8.2,2.8,9.5,6.8
			c0.5,1.4,0.7,3,0.7,4.9c0,5.3-2.4,9-6.1,10.6c-1.3,0.6-2.7,0.9-4.3,0.9C100.6,91.8,98,90.5,96.3,88.6z M104.1,71.3
			c-4,0-6.3,2.3-7.2,5.3c-0.4,1.1-0.6,2.4-0.6,3.8c0,4.1,1.7,6.9,4.5,8.2c0.9,0.4,2,0.7,3.2,0.7c3.9,0,6.1-2.1,7.1-5.2
			c0.4-1.1,0.5-2.4,0.5-3.8C111.6,74.8,109.3,71.3,104.1,71.3z"/>
		<path class="st0" d="M125.1,71.3c-2.3,0-4,1.3-5.3,3.9v16h-2.7V69.2h2.7v2.5c1.4-1.6,2.9-2.9,5.6-2.9c1.1,0,2.4,0.4,3.3,0.8
			l-0.9,2.7C127,71.7,126.3,71.3,125.1,71.3z"/>
		<path class="st0" d="M142.6,69.2h3.6L135.7,80l2.8,2.8c2.8,2.8,5.7,5.8,8.5,8.6h-3.9l-9.7-10v10h-2.7V59h2.7v19.7
			C136.5,75.6,139.5,72.4,142.6,69.2z"/>
		<path class="st1" d="M167,69.2c0,4.9-2.6,7.9-6.2,9.3c-1.3,0.5-2.9,0.8-4.6,0.8h-3.9v12.1h-2.9V60.4h7.7
			C163.3,60.4,167,63.1,167,69.2z M164.1,69.5c0-4.2-2.5-6.4-7.4-6.4h-4.4v13.4h3.8C161.1,76.5,164.1,74.3,164.1,69.5z"/>
		<path class="st1" d="M176.5,71.3c-2.4,0-4.5,0.9-6.6,2.7l-1.7-1.8c2.2-2.3,5-3.4,8.5-3.4c5,0,7.3,3.2,7.3,8.4v14.2h-2.7v-2.4
			c-1.2,1.2-3.1,2.2-5,2.7c-0.7,0.2-1.3,0.3-1.9,0.3c-3.3,0-5.5-1.5-6.4-3.9c-0.3-0.8-0.5-1.6-0.5-2.5c0.1-5.4,4.6-7.3,10.1-7.3
			c1.3,0,2.7,0.1,3.8,0.3C181.3,74.4,180.3,71.3,176.5,71.3z M177.7,80.6c-3,0-5.6,0.7-6.8,2.4c-0.4,0.6-0.7,1.4-0.7,2.3
			c0,2.5,1.8,3.9,4.3,3.9c1.9,0,3.5-0.5,4.7-1.5v0c0.6-0.4,1-0.9,1.3-1.3c0.3-0.4,0.6-0.8,0.7-1.1v-4.6
			C180.2,80.7,178.9,80.6,177.7,80.6z"/>
		<path class="st1" d="M188.1,91.3V59h2.7v32.3H188.1z"/>
	</g>
	<g>
		<circle class="st0" cx="46" cy="87.9" r="4.9"/>
		<circle class="st0" cx="16.4" cy="87.9" r="4.9"/>
		<circle class="st0" cx="31.4" cy="66.3" r="4.9"/>
		<g>
			<line class="st2" x1="31.4" y1="70.2" x2="31.4" y2="81.9"/>
			<line class="st2" x1="31.6" y1="81.3" x2="20.9" y2="86"/>
			<line class="st2" x1="30.9" y1="81.3" x2="41.7" y2="86"/>
		</g>
	</g>
</g>
</svg>
